<svg width="97" height="75" viewBox="0 0 97 75" fill="none" xmlns="http://www.w3.org/2000/svg">
<path d="M48 0C46.3431 0 45 1.34314 45 3V17C16.3388 17 0.67044 25 0.67044 25C-0.377763 25.9155 -0.196854 27.7354 1.21318 28.3387L20.4509 36.5708C21.4497 36.9982 21.9247 38.1448 21.5206 39.1533L13.7384 58.5774C13.0841 60.2107 14.7056 61.8321 16.3388 61.1778L35.7629 53.3956C36.7714 52.9915 37.918 53.4665 38.3454 54.4653L46.5775 73.703C47.2697 75.3206 49.5628 75.3206 50.2549 73.703L58.487 54.4653C58.9144 53.4665 60.0611 52.9915 61.0695 53.3956L80.4936 61.1778C82.1269 61.8321 83.7483 60.2107 83.094 58.5774L75.3118 39.1533C74.9077 38.1448 75.3827 36.9982 76.3815 36.5708L95.6192 28.3387C97.0293 27.7354 97.2102 25.9155 96.162 25C96.162 25 82 17.5 52 17V3C52 1.34315 50.6569 0 49 0H48Z" fill="#1CAD45"/>
</svg>
